<?xml version="1.0" standalone="no"?>
<!DOCTYPE svg PUBLIC "-//W3C//DTD SVG 20010904//EN"
 "http://www.w3.org/TR/2001/REC-SVG-20010904/DTD/svg10.dtd">
<svg version="1.0" xmlns="http://www.w3.org/2000/svg"
 width="40.000000pt" height="40.000000pt" viewBox="0 0 40.000000 40.000000"
 preserveAspectRatio="xMidYMid meet">
<metadata>
Created by potrace 1.10, written by Peter Selinger 2001-2011
</metadata>
<g transform="translate(0.000000,40.000000) scale(0.100000,-0.100000)"
fill="#869ab8" stroke="none">
<path d="M173 333 c-10 -26 -24 -33 -44 -20 -27 17 -59 -15 -42 -42 13 -20 6
-34 -19 -44 -23 -8 -23 -46 0 -54 25 -10 32 -24 19 -44 -17 -27 15 -59 42 -42
20 13 34 6 44 -19 8 -23 46 -23 54 0 10 25 24 32 44 19 27 -17 59 15 42 42
-13 20 -6 34 20 44 9 3 17 16 17 27 0 11 -8 24 -17 27 -26 10 -33 24 -20 44
17 27 -15 59 -42 42 -20 -13 -34 -6 -44 20 -3 9 -16 17 -27 17 -11 0 -24 -8
-27 -17z m42 -22 c7 -24 31 -34 54 -21 23 12 33 2 21 -21 -13 -23 -3 -47 21
-54 24 -8 24 -22 0 -30 -24 -7 -34 -31 -21 -54 12 -23 2 -33 -21 -21 -23 13
-47 3 -54 -21 -4 -10 -10 -19 -15 -19 -5 0 -11 9 -15 19 -7 24 -31 34 -54 21
-23 -12 -33 -2 -21 21 13 23 3 47 -21 54 -24 8 -24 22 0 30 24 7 34 31 21 54
-12 23 -2 33 21 21 23 -13 47 -3 54 21 4 10 10 19 15 19 5 0 11 -9 15 -19z"/>
<path d="M157 242 c-22 -24 -21 -65 1 -85 40 -36 102 -9 102 45 0 51 -69 78
-103 40z m73 -17 c15 -18 10 -45 -12 -59 -35 -22 -74 27 -48 59 16 19 44 19
60 0z"/>
</g>
</svg>
